<svg width="52" height="38" viewBox="0 0 52 38" fill="none" xmlns="http://www.w3.org/2000/svg">
<path d="M32.5 14.5C34.2085 15.7413 34.7022 17.7873 35.3548 19.7957C36.0074 21.8042 36.0074 23.9677 35.3548 25.9761C34.7022 27.9845 33.4305 29.7348 31.7221 30.9761C30.0136 32.2174 27.956 32.8859 25.8442 32.8859C23.7324 32.8859 21.6748 32.2174 19.9664 30.9761C18.2579 29.7348 16.9862 27.9845 16.3337 25.9761C15.6811 23.9677 15.6811 21.8042 16.3337 19.7958C16.9862 17.7873 19 14.7958 19 14.7958" stroke="black"/>
<line x1="19.5" y1="15" x2="19.5" stroke="black"/>
<line x1="32.207" y1="15.0185" x2="32.207" y2="0.0184937" stroke="black"/>
<line x1="20" y1="0.5" y2="0.5" stroke="black"/>
<line x1="52" y1="0.5" x2="32" y2="0.5" stroke="black"/>
</svg>
